<!DOCTYPE svg PUBLIC "-//W3C//DTD SVG 1.1//EN" "http://www.w3.org/Graphics/SVG/1.1/DTD/svg11.dtd">
<!-- Uploaded to: SVG Repo, www.svgrepo.com, Transformed by: SVG Repo Mixer Tools -->
<svg fill="#3bc944" width="64px" height="64px" viewBox="0 0 32 32" id="OBJECT" xmlns="http://www.w3.org/2000/svg" stroke="#3bc944">
<g id="SVGRepo_bgCarrier" stroke-width="0"/>
<g id="SVGRepo_tracerCarrier" stroke-linecap="round" stroke-linejoin="round"/>
<g id="SVGRepo_iconCarrier">
<title/>
<path d="M13.65,17.91a8.62,8.62,0,0,0-10,1.67A8.62,8.62,0,0,0,1.93,29.63a1,1,0,0,0,.44.44A8.38,8.38,0,0,0,6.23,31a8.73,8.73,0,0,0,6.19-2.6,8.62,8.62,0,0,0,1.67-10A1,1,0,0,0,13.65,17.91Z"/>
<path d="M18.35,14.09a8.51,8.51,0,0,0,3.86.93,8.77,8.77,0,0,0,6.19-2.6,8.62,8.62,0,0,0,1.67-10,1,1,0,0,0-.44-.44,8.62,8.62,0,0,0-10,1.67,8.62,8.62,0,0,0-1.67,10.05A1,1,0,0,0,18.35,14.09Z"/>
<path d="M18.35,17.91a1,1,0,0,0-.44.44,8.62,8.62,0,0,0,1.67,10A8.73,8.73,0,0,0,25.77,31a8.38,8.38,0,0,0,3.86-.93,1,1,0,0,0,.44-.44A8.76,8.76,0,0,0,18.35,17.91Z"/>
<path d="M2.37,1.93a1,1,0,0,0-.44.44A8.62,8.62,0,0,0,3.6,12.42,8.77,8.77,0,0,0,9.79,15a8.51,8.51,0,0,0,3.86-.93,1,1,0,0,0,.44-.44,8.62,8.62,0,0,0-1.67-10A8.62,8.62,0,0,0,2.37,1.93Z"/>
</g>
</svg>